<svg xmlns="http://www.w3.org/2000/svg" viewBox="475 58 440 481">
<g>
<path d="M 574.39 529.64 C570.47,533.14 566.76,536.00 566.14,536.00 C564.15,536.00 564.88,532.12 569.43,518.64 C575.14,501.72 578.00,487.56 578.00,476.23 L 578.00 467.27 L 583.75 465.15 C590.96,462.50 600.30,456.79 606.56,451.21 C611.10,447.16 611.36,446.67 611.13,442.35 C610.84,436.67 612.91,434.00 617.63,434.00 C621.84,434.00 623.38,431.75 625.56,422.49 C628.66,409.28 626.14,397.66 618.84,391.52 C616.08,389.19 614.93,388.86 611.18,389.28 C602.01,390.32 598.43,399.42 604.92,405.22 C606.63,406.75 609.15,408.00 610.52,408.00 C613.30,408.00 613.85,409.46 611.42,410.39 C607.66,411.83 604.67,410.90 600.88,407.12 C597.36,403.60 597.00,402.75 597.00,398.00 C597.00,393.27 597.37,392.40 600.79,388.98 C607.81,381.96 618.33,382.89 625.40,391.16 C629.81,396.30 631.54,402.62 631.33,412.75 C631.23,417.29 631.36,421.00 631.60,421.00 C631.84,421.00 633.39,418.87 635.04,416.28 L 638.04 411.55 L 637.40 393.03 C636.69,372.11 637.45,367.00 643.46,352.26 C648.43,340.06 656.91,328.03 669.95,314.67 C680.23,304.13 698.38,288.10 701.13,287.14 C701.69,286.94 701.23,288.58 700.11,290.78 C694.81,301.17 693.24,313.86 693.99,340.28 L 694.35 353.05 L 700.78 346.82 L 701.26 329.66 C701.83,309.41 703.63,301.41 710.71,287.71 C718.69,272.25 730.45,261.30 763.00,239.02 C784.82,224.08 795.16,215.76 805.34,204.95 C809.97,200.03 813.95,196.00 814.18,196.00 C814.42,196.00 813.81,199.94 812.82,204.75 C811.69,210.31 811.03,217.97 811.02,225.75 C811.01,233.24 810.61,238.00 810.00,238.00 C809.45,238.00 809.00,238.68 809.00,239.50 C809.00,240.32 809.45,241.00 810.00,241.00 C810.55,241.00 811.00,241.51 811.00,242.12 C811.00,244.04 808.17,241.09 807.70,238.68 C807.34,236.85 807.25,236.94 807.14,239.18 C807.06,240.66 806.53,243.10 805.96,244.61 C804.57,248.27 805.44,250.71 807.54,248.97 C810.87,246.20 809.71,248.88 806.00,252.50 C803.82,254.63 801.80,256.13 801.51,255.84 C801.21,255.55 802.05,252.43 803.36,248.90 C805.35,243.54 805.82,240.03 806.26,227.25 C806.54,218.86 806.57,212.00 806.33,212.00 C806.09,212.00 801.98,215.39 797.19,219.53 C792.41,223.67 781.30,232.08 772.50,238.21 C745.87,256.75 740.91,260.34 736.46,264.25 C734.11,266.31 731.78,268.00 731.27,268.00 C730.76,268.00 729.29,269.12 728.00,270.50 C726.71,271.88 726.04,273.00 726.52,273.00 C727.00,273.00 726.02,274.46 724.34,276.25 C712.45,288.91 706.46,306.12 705.27,330.98 L 704.67 343.46 L 708.27 340.48 C725.41,326.27 739.42,315.12 756.00,302.50 C779.79,284.40 787.31,278.35 801.50,265.94 C831.25,239.91 852.09,212.28 868.01,177.77 C870.48,172.41 872.86,168.02 873.30,168.02 C874.80,167.99 872.85,176.38 868.92,186.84 C857.26,217.88 839.24,246.00 814.37,271.95 C801.91,284.96 792.31,293.40 761.50,318.47 C749.40,328.32 735.90,339.50 731.50,343.31 C722.32,351.26 707.00,366.01 707.00,366.90 C707.00,367.23 712.29,367.53 718.75,367.57 C725.21,367.61 738.38,367.82 748.00,368.03 C763.74,368.38 766.31,368.19 773.50,366.19 C783.09,363.53 793.73,358.62 801.82,353.12 C809.71,347.77 822.63,334.60 830.89,323.50 C843.54,306.51 843.71,306.07 836.21,309.88 C826.31,314.91 811.42,318.23 791.00,319.96 C784.67,320.49 777.13,321.55 774.22,322.32 C771.32,323.09 768.74,323.38 768.48,322.97 C767.70,321.70 781.05,312.05 788.47,308.52 C792.34,306.68 802.92,302.59 812.00,299.43 C840.89,289.38 851.64,283.49 862.77,271.58 C877.55,255.79 887.99,229.51 893.66,193.80 C896.14,178.24 896.15,137.89 893.69,120.00 C891.71,105.58 887.95,85.88 886.95,84.69 C886.58,84.24 885.95,87.16 885.56,91.19 C882.22,125.40 869.92,150.62 842.14,180.19 C827.03,196.28 825.80,198.64 821.50,219.73 C818.68,233.57 814.45,244.15 811.02,245.99 C808.90,247.12 808.89,247.10 810.52,244.62 C811.43,243.23 811.91,241.67 811.59,241.15 C811.27,240.63 811.72,238.25 812.59,235.86 C813.46,233.46 815.47,225.20 817.06,217.50 C820.99,198.41 824.25,192.02 836.81,178.75 C852.68,161.96 858.82,153.89 866.39,139.83 C877.57,119.04 882.71,94.23 881.26,67.95 C880.73,58.33 880.78,58.00 882.81,58.00 C884.55,58.00 885.27,59.19 886.91,64.75 C894.87,91.75 899.40,119.41 900.62,148.43 C902.43,191.26 891.74,239.09 874.62,264.81 C862.42,283.14 847.71,292.35 810.24,305.12 C802.36,307.81 793.80,311.11 791.21,312.46 L 786.50 314.91 L 792.00 314.95 C809.46,315.08 833.40,307.84 849.47,297.56 C852.63,295.54 855.46,294.13 855.77,294.43 C857.40,296.07 833.82,328.98 822.50,340.86 C807.82,356.26 794.65,364.85 777.50,370.23 C770.90,372.30 768.63,372.43 737.50,372.46 C705.63,372.50 704.36,372.57 700.50,374.66 C698.30,375.85 695.15,378.27 693.50,380.04 L 690.50 383.27 L 694.00 382.69 C695.92,382.37 700.65,381.41 704.50,380.57 C713.82,378.53 720.21,378.61 735.61,380.99 C755.41,384.05 764.54,383.58 778.32,378.83 C781.53,377.72 784.38,377.04 784.65,377.32 C785.35,378.01 763.71,395.62 751.00,404.70 C725.58,422.86 697.57,431.45 671.88,428.96 C666.72,428.46 660.25,428.04 657.50,428.03 C652.61,428.00 652.42,428.11 649.09,433.01 C647.21,435.76 645.91,438.24 646.18,438.52 C646.46,438.79 648.67,438.31 651.09,437.43 C657.16,435.24 669.47,434.49 674.94,435.97 C680.47,437.47 685.41,442.28 687.05,447.77 C689.50,455.94 683.28,465.00 675.21,465.00 C671.52,465.00 666.48,461.05 665.58,457.46 C664.56,453.41 666.04,452.53 668.11,455.94 C670.35,459.63 674.07,461.31 677.29,460.08 C685.25,457.06 684.10,445.03 675.51,441.44 C667.97,438.29 654.41,440.19 645.84,445.60 C642.20,447.90 642.06,448.18 642.62,452.25 C643.39,457.92 640.43,462.00 635.54,462.00 C632.35,462.00 632.13,462.26 629.62,469.06 C626.94,476.27 625.23,485.36 624.76,494.80 L 624.50 500.10 L 618.00 502.37 C603.34,507.48 589.49,516.15 574.39,529.64 ZM 563.81 485.17 C563.45,488.81 561.89,489.77 560.01,487.51 C558.91,486.18 558.98,486.06 560.52,486.64 C563.51,487.79 561.79,481.65 556.37,471.79 C551.56,463.04 549.00,460.16 553.00,468.00 C554.18,470.31 554.89,472.44 554.58,472.75 C554.28,473.06 552.40,469.75 550.41,465.40 C539.77,442.17 534.12,424.44 527.43,393.24 C522.02,367.98 514.67,332.55 510.79,313.00 C508.55,301.73 506.38,292.12 505.97,291.66 C505.55,291.19 503.77,293.75 502.01,297.33 C498.84,303.76 498.82,303.90 500.30,308.67 C501.12,311.33 502.82,315.85 504.08,318.73 C506.45,324.11 506.11,326.84 503.51,323.43 C500.77,319.83 493.10,303.53 490.60,296.00 C484.26,276.84 485.77,255.31 494.50,240.40 C496.99,236.16 498.08,227.00 496.10,227.00 C494.81,227.00 489.57,235.47 486.02,243.30 C475.30,266.93 479.12,292.32 498.89,329.00 C510.97,351.41 516.93,367.68 520.53,388.15 C522.31,398.28 522.39,402.00 520.81,402.00 C517.45,402.00 501.73,382.23 495.77,370.50 C488.66,356.53 487.65,352.06 487.42,333.50 C487.13,310.35 484.65,304.18 481.44,318.61 C478.86,330.24 479.84,349.93 483.76,365.00 C493.95,404.15 513.09,437.29 542.49,466.75 C555.65,479.93 558.50,483.20 553.56,479.47 C549.41,476.33 549.73,478.27 554.00,482.12 C558.30,486.00 558.21,485.97 552.00,481.39 C524.37,461.00 496.82,420.53 483.65,381.00 C474.08,352.25 472.69,330.04 479.20,309.82 L 481.35 303.13 L 479.01 294.82 C475.80,283.36 475.11,265.18 477.47,254.33 C479.66,244.31 484.41,234.46 491.62,225.00 C496.79,218.22 497.47,216.73 498.73,209.56 C502.58,187.60 514.42,170.30 532.79,159.79 C536.94,157.42 538.65,155.64 540.65,151.63 C546.20,140.54 558.97,125.79 571.00,116.58 C589.24,102.61 616.46,90.96 643.74,85.43 C658.84,82.37 662.79,82.51 655.50,85.84 C652.75,87.10 648.47,88.61 646.00,89.19 C610.41,97.64 584.42,109.89 565.72,127.02 C559.05,133.13 546.00,149.44 546.00,151.66 C546.00,154.23 550.36,151.44 554.13,146.45 C562.16,135.81 574.62,130.19 586.50,131.84 C593.30,132.79 592.60,133.27 582.09,134.90 C577.94,135.54 572.59,137.19 569.93,138.63 C565.36,141.12 558.18,147.55 559.07,148.36 C559.31,148.58 562.88,148.15 567.00,147.42 C575.59,145.89 580.00,145.66 580.00,146.76 C580.00,148.14 572.81,158.34 566.35,166.13 C558.75,175.31 549.59,183.92 542.32,188.75 C537.02,192.27 535.52,194.76 536.17,198.92 C536.47,200.83 537.49,200.31 546.00,193.94 C551.22,190.04 557.91,184.51 560.85,181.67 C566.29,176.41 581.70,158.57 592.52,145.00 C595.81,140.88 603.92,132.11 610.54,125.50 C627.66,108.44 642.36,98.01 660.41,90.09 C675.29,83.57 683.17,81.89 700.50,81.55 C712.51,81.32 713.61,81.40 706.00,81.94 C697.64,82.53 697.25,82.64 702.75,82.81 C706.19,82.91 709.00,83.45 709.00,84.00 C709.00,84.55 707.99,85.04 706.75,85.08 C705.20,85.13 705.82,85.62 708.76,86.66 C711.14,87.51 712.73,88.62 712.38,89.19 C711.97,89.85 711.48,89.78 710.99,88.98 C710.57,88.30 709.72,88.05 709.11,88.43 C708.50,88.81 708.00,88.65 708.00,88.09 C708.00,87.42 703.20,87.16 694.25,87.34 C677.99,87.68 673.22,89.15 661.77,97.32 C646.70,108.07 637.48,128.96 639.49,147.76 C641.57,167.15 653.79,185.41 670.59,194.22 C680.05,199.18 687.55,201.00 698.58,201.00 C707.79,201.00 712.07,200.13 735.50,193.48 C746.69,190.30 759.33,189.33 768.55,190.94 C777.11,192.43 788.46,197.06 793.05,200.93 C796.21,203.60 796.37,203.99 794.92,205.47 C793.46,206.96 792.93,206.82 788.21,203.64 C779.47,197.76 771.20,195.50 758.50,195.52 C745.59,195.54 737.86,197.70 728.05,204.05 C713.61,213.38 706.11,224.35 697.65,248.56 C691.67,265.66 687.52,274.79 684.41,277.67 C683.02,278.96 682.18,280.49 682.54,281.07 C683.34,282.35 679.80,281.92 678.86,280.61 C678.50,280.13 677.72,280.65 677.12,281.77 C675.98,283.91 677.10,284.32 679.68,282.71 C680.33,282.30 681.14,282.43 681.49,282.98 C681.84,283.54 677.93,288.19 672.81,293.31 C658.98,307.14 645.79,313.16 629.00,313.28 C619.26,313.36 612.43,311.71 602.13,306.81 C574.24,293.53 562.61,259.99 576.05,231.55 C582.10,218.75 596.97,207.00 610.80,204.11 C631.32,199.81 652.26,208.20 662.98,225.00 C666.90,231.15 670.32,241.60 669.12,243.75 C668.37,245.09 667.97,244.60 667.07,241.25 C666.45,238.96 665.54,236.84 665.05,236.53 C664.56,236.23 664.60,237.58 665.14,239.55 C665.68,241.51 665.96,243.62 665.76,244.22 C665.56,244.83 664.81,242.75 664.11,239.60 C661.56,228.21 650.10,215.48 638.34,210.97 C631.08,208.19 619.10,207.30 611.85,209.01 C588.88,214.43 572.94,236.89 575.38,260.39 C578.24,287.98 600.91,308.45 628.50,308.37 C644.11,308.33 655.97,303.12 668.08,291.00 C673.42,285.65 676.74,281.25 679.33,276.07 C681.35,272.04 683.00,269.26 683.00,269.91 C683.00,270.55 682.07,272.91 680.93,275.14 C679.79,277.37 679.11,279.45 679.43,279.76 C680.17,280.51 685.02,274.84 684.43,273.89 C684.19,273.49 684.69,272.45 685.56,271.58 C687.00,270.15 686.73,269.58 684.78,269.87 C684.38,269.93 684.49,268.83 685.03,267.43 C685.56,266.02 685.96,264.11 685.91,263.18 C685.86,262.26 685.38,263.01 684.85,264.86 C683.47,269.68 682.74,268.10 683.94,262.88 C685.44,256.39 685.21,244.23 683.46,237.46 C680.01,224.10 674.48,215.26 657.34,195.72 C648.21,185.32 638.61,168.18 636.21,158.00 C632.13,140.67 635.21,122.30 644.52,108.41 C646.89,104.89 648.50,102.00 648.11,102.00 C646.98,102.00 638.09,107.82 631.50,112.87 C620.76,121.10 607.96,134.16 592.85,152.30 C566.51,183.94 559.65,190.78 543.34,201.71 L 535.18 207.18 L 534.53 213.34 C531.82,239.11 526.71,255.13 513.87,278.14 L 509.61 285.77 L 513.91 306.64 C516.28,318.11 518.80,329.98 519.51,333.00 C520.22,336.02 522.92,348.85 525.50,361.50 C535.72,411.65 543.07,438.51 551.58,456.84 C553.53,461.05 555.20,465.29 555.28,466.25 C555.36,467.21 555.81,468.00 556.27,468.00 C556.74,468.00 556.84,468.45 556.50,469.00 C556.16,469.55 556.39,470.00 557.00,470.00 C557.61,470.00 557.84,470.45 557.50,471.00 C557.16,471.55 557.39,472.00 558.00,472.00 C558.61,472.00 558.84,472.45 558.50,473.00 C558.16,473.55 558.39,474.00 559.00,474.00 C559.61,474.00 559.85,474.43 559.52,474.96 C559.20,475.49 559.76,476.76 560.78,477.78 C561.79,478.79 562.45,480.16 562.23,480.81 C562.01,481.47 562.35,482.00 562.98,482.00 C563.67,482.00 564.00,483.27 563.81,485.17 ZM 614.70 537.45 C603.64,538.90 580.03,539.46 577.25,538.34 C576.56,538.06 576.00,536.97 576.00,535.92 C576.00,534.11 576.88,534.00 590.78,534.00 C607.90,534.00 617.98,532.92 634.00,529.35 C657.77,524.06 681.10,514.76 709.00,499.45 C744.18,480.15 759.70,473.74 780.42,469.98 C786.43,468.89 791.48,468.00 791.63,468.00 C791.79,468.00 793.15,465.86 794.65,463.25 C804.46,446.21 820.83,430.14 838.77,419.95 C845.10,416.35 848.16,414.02 848.41,412.59 C848.62,411.44 849.72,405.06 850.87,398.41 C854.21,379.00 858.81,366.72 874.70,334.81 C895.25,293.53 899.13,280.61 899.37,252.50 C899.48,239.96 899.74,237.50 900.98,237.50 C901.99,237.50 903.37,240.53 905.28,247.00 C922.32,304.50 915.47,370.19 889.17,401.58 C883.71,408.10 883.28,409.02 881.63,417.50 C878.35,434.35 872.50,445.35 860.97,456.39 C856.83,460.36 850.82,465.10 847.63,466.93 C843.28,469.42 840.92,471.67 838.26,475.88 C836.30,478.97 831.22,484.91 826.97,489.09 C815.05,500.78 800.12,507.74 779.19,511.36 C772.33,512.54 769.85,513.52 764.94,516.96 C744.62,531.21 716.15,538.18 685.00,536.51 C666.76,535.54 662.60,534.87 662.21,532.87 C661.93,531.39 664.42,531.25 688.70,531.37 C718.41,531.51 724.55,530.67 741.64,524.08 C759.38,517.24 780.30,500.91 789.45,486.75 L 791.23 484.00 L 788.08 484.00 C785.43,484.00 783.64,485.35 776.77,492.56 C762.68,507.33 749.77,514.43 737.00,514.43 C731.07,514.43 720.66,511.87 719.59,510.15 C719.36,509.77 725.09,509.46 732.33,509.48 C743.96,509.50 746.07,509.23 750.39,507.22 C753.08,505.97 755.06,504.72 754.78,504.45 C754.50,504.17 750.33,503.49 745.50,502.94 C740.68,502.40 736.10,501.59 735.33,501.16 C733.13,499.93 736.25,497.68 749.30,491.06 C762.13,484.55 769.04,482.63 794.50,478.50 C815.74,475.06 820.21,473.73 823.45,469.87 C824.90,468.15 825.90,466.57 825.67,466.34 C825.45,466.12 821.90,466.86 817.79,467.98 C813.68,469.11 802.81,471.14 793.65,472.49 C762.57,477.08 755.70,479.64 714.44,502.07 C675.84,523.05 647.28,533.18 614.70,537.45 ZM 846.00 461.07 C846.00,461.58 846.28,462.00 846.62,462.00 C848.23,462.00 857.45,454.29 861.35,449.67 C875.76,432.64 879.53,417.44 878.36,381.07 C877.79,363.14 877.93,359.39 879.46,353.15 C881.29,345.69 888.66,329.95 890.63,329.29 C892.36,328.71 894.81,335.96 895.94,345.01 C897.68,358.86 894.48,373.65 886.98,386.44 C883.70,392.02 882.96,394.18 883.20,397.44 L 883.50 401.50 L 888.32 395.04 C897.67,382.53 903.43,367.13 907.62,343.50 C910.97,324.61 909.76,283.34 905.33,265.25 C904.34,261.18 903.00,262.90 902.99,268.25 C902.98,275.39 898.91,292.79 894.86,303.06 C893.03,307.70 886.93,320.57 881.30,331.67 C864.16,365.49 858.41,380.52 855.01,400.47 C853.97,406.52 853.21,411.55 853.32,411.65 C853.66,411.99 862.82,405.52 865.92,402.74 C868.97,400.01 869.00,399.89 869.00,389.99 C869.00,379.78 870.25,376.89 871.70,383.75 C872.14,385.81 872.48,393.12 872.45,400.00 C872.37,420.71 867.45,433.96 854.83,447.48 C848.79,453.95 846.00,458.23 846.00,461.07 ZM 668.00 423.92 C684.06,427.00 708.31,422.83 726.74,413.83 C736.60,409.01 753.52,397.93 760.45,391.75 L 765.39 387.34 L 759.38 387.78 C756.00,388.02 746.61,387.24 737.94,385.99 C717.82,383.09 707.42,383.56 693.54,388.01 C685.12,390.71 682.99,391.84 679.71,395.35 C672.82,402.74 659.00,419.78 659.00,420.88 C659.00,422.00 660.33,422.45 668.00,423.92 ZM 641.58 393.25 C641.95,400.26 642.61,406.00 643.04,406.00 C643.48,406.00 646.43,402.96 649.61,399.25 C652.79,395.54 662.92,384.85 672.11,375.50 C686.48,360.90 688.94,357.94 689.59,354.50 C690.00,352.30 689.87,343.98 689.29,336.00 C688.32,322.63 688.60,315.54 690.50,305.75 C690.92,303.57 690.83,302.00 690.29,302.00 C688.74,302.00 668.28,322.67 661.97,330.62 C646.09,350.60 640.26,368.50 641.58,393.25 ZM 715.46 183.62 C707.23,186.61 695.58,187.50 688.50,185.68 C675.41,182.31 663.43,172.42 657.74,160.26 C651.86,147.71 652.87,130.58 660.12,119.63 C671.64,102.24 693.67,96.25 712.02,105.52 C716.34,107.70 725.86,116.77 726.12,118.96 C726.28,120.26 726.67,121.84 727.00,122.50 C727.14,122.78 727.35,123.34 727.46,123.75 C727.58,124.16 728.08,125.40 728.59,126.50 C730.29,130.22 729.46,143.12 727.19,148.22 C724.40,154.51 717.73,161.58 711.54,164.81 C707.40,166.98 705.16,167.45 699.00,167.45 C690.23,167.45 685.26,165.34 680.01,159.36 C669.51,147.40 670.92,131.38 683.19,123.26 C686.69,120.94 688.42,120.50 694.00,120.50 C699.75,120.50 701.16,120.88 704.33,123.30 C712.84,129.79 713.32,140.67 705.39,146.91 C699.76,151.34 690.58,147.93 691.20,141.63 C691.42,139.30 692.05,138.42 693.68,138.19 C695.41,137.94 695.92,138.45 696.18,140.69 C696.64,144.72 700.97,145.13 703.88,141.42 C709.89,133.79 702.46,123.87 691.82,125.30 C677.95,127.16 673.33,144.62 683.68,156.07 C697.02,170.84 722.78,159.50 724.73,138.00 C725.83,125.91 718.82,113.86 707.80,108.90 C700.61,105.67 686.85,105.59 679.83,108.76 C666.14,114.92 658.35,128.37 659.19,144.37 C660.26,164.57 676.15,180.48 696.59,181.79 C714.88,182.96 732.06,171.94 740.71,153.47 C743.30,147.93 743.50,146.60 743.50,134.95 C743.50,122.46 743.48,122.35 739.78,114.95 C737.74,110.85 734.15,105.29 731.81,102.58 C723.65,93.14 727.26,90.05 735.61,99.33 C752.68,118.32 753.51,148.04 737.53,168.10 C732.03,175.01 724.40,180.38 715.46,183.62 ZM 630.75 441.32 C636.26,445.41 636.54,445.29 641.21,437.13 C649.28,423.02 671.59,395.92 695.39,371.31 C715.08,350.97 729.20,338.52 770.60,305.01 C780.45,297.05 794.74,284.45 802.37,277.01 C815.72,264.02 833.41,244.07 832.44,243.11 C832.19,242.85 826.68,248.01 820.22,254.58 C805.98,269.02 790.92,281.69 757.72,307.18 C743.88,317.80 727.14,330.96 720.53,336.43 C705.42,348.92 665.01,388.77 652.02,404.00 C641.12,416.77 626.00,436.01 626.00,437.10 C626.00,437.49 628.14,439.39 630.75,441.32 ZM 581.00 516.50 C581.00,517.52 582.09,516.90 587.23,512.96 C593.12,508.45 613.18,498.00 615.96,498.00 C618.82,498.00 619.59,496.11 620.88,486.00 C621.55,480.77 623.46,472.52 625.12,467.66 C626.79,462.80 628.01,458.71 627.83,458.57 C627.65,458.43 624.91,456.39 621.74,454.04 L 615.99 449.75 L 612.74 452.41 C603.49,459.99 596.95,464.43 590.33,467.61 L 583.00 471.14 L 583.00 476.82 C582.99,484.30 580.75,497.82 578.10,506.41 C576.93,510.20 576.15,513.49 576.38,513.71 C576.60,513.93 579.46,510.38 582.72,505.81 C594.75,489.00 595.14,488.29 594.47,484.70 C593.57,479.92 596.35,476.80 601.50,476.80 C608.71,476.80 610.97,483.16 605.75,488.75 C604.60,489.99 602.66,491.00 601.45,491.00 C599.96,491.00 597.94,492.71 595.25,496.25 C589.70,503.53 581.00,515.90 581.00,516.50 ZM 645.36 290.21 C628.10,298.29 608.03,292.92 596.43,277.10 C591.26,270.07 589.69,264.29 590.18,254.13 C590.67,243.90 592.85,238.59 599.24,232.07 C605.62,225.56 612.79,222.57 622.00,222.58 C639.80,222.62 651.77,234.88 650.81,252.12 C650.09,265.18 640.77,274.50 628.41,274.50 C623.09,274.50 621.55,274.06 617.93,271.50 C611.69,267.09 609.74,263.93 609.20,257.37 C608.84,253.06 609.17,250.83 610.56,248.25 C612.57,244.54 618.39,241.00 622.51,241.00 C625.87,241.00 630.66,243.50 631.97,245.94 C633.57,248.94 633.18,253.52 631.17,255.35 C627.49,258.68 625.44,256.95 627.28,252.07 C628.36,249.21 628.28,248.68 626.56,247.42 C621.51,243.73 614.00,248.67 614.00,255.67 C614.02,270.50 634.09,274.89 642.66,261.94 C650.02,250.82 645.88,236.13 633.59,229.76 C624.56,225.07 609.96,227.65 602.88,235.20 C591.87,246.93 592.20,265.35 603.65,278.04 C609.23,284.23 619.63,289.00 627.54,289.00 C647.67,289.00 662.70,274.79 665.85,252.77 C666.74,246.56 666.76,246.54 667.02,251.00 L 667.28 255.50 L 667.89 251.58 C668.62,246.91 671.01,245.43 670.98,249.67 C670.95,255.16 668.06,266.12 665.30,271.23 C661.06,279.06 653.20,286.54 645.36,290.21 ZM 846.22 152.41 C844.70,155.76 841.44,155.77 833.50,152.43 C821.94,147.57 814.40,144.86 803.06,141.48 L 791.63 138.08 L 782.70 128.51 C777.79,123.24 770.11,116.09 765.64,112.61 C757.19,106.05 742.49,97.00 740.27,97.00 C739.57,97.00 739.00,96.55 739.00,96.00 C739.00,95.45 738.66,95.10 738.25,95.21 C737.84,95.33 736.55,94.90 735.38,94.25 C734.22,93.60 732.98,93.35 732.63,93.70 C732.28,94.05 732.00,93.76 732.00,93.06 C732.00,92.36 731.44,92.00 730.74,92.27 C729.38,92.79 727.68,91.25 727.19,89.04 C726.95,87.95 727.19,87.91 728.32,88.85 C729.10,89.50 730.59,89.76 731.62,89.42 C733.05,88.96 733.17,89.05 732.11,89.80 C730.47,90.97 731.65,91.74 739.99,94.90 C747.41,97.72 747.48,96.77 740.11,93.39 C731.39,89.38 733.28,89.34 742.73,93.33 C755.12,98.55 773.67,111.58 781.88,120.82 C793.55,133.95 793.75,134.10 804.47,137.08 C810.03,138.63 820.18,142.15 827.04,144.90 C834.53,147.90 839.86,149.53 840.41,148.99 C842.96,146.45 826.21,129.64 809.93,118.39 C792.26,106.18 762.21,93.24 743.75,89.88 C740.04,89.21 737.00,88.28 737.00,87.83 C737.00,87.37 735.76,86.94 734.25,86.87 C731.80,86.75 731.88,86.66 735.00,86.03 C738.49,85.34 738.48,85.33 733.22,84.53 C730.31,84.09 728.15,83.51 728.42,83.25 C729.35,82.32 745.11,85.13 755.79,88.12 C785.29,96.39 815.30,113.47 835.05,133.21 C844.37,142.53 847.93,148.65 846.22,152.41 ZM 690.00 248.70 C690.00,253.44 691.09,252.17 694.03,244.00 C699.89,227.72 705.63,217.82 714.52,208.68 C717.09,206.03 719.02,203.69 718.81,203.47 C718.59,203.26 715.73,203.79 712.46,204.65 C708.12,205.79 703.50,206.09 695.50,205.77 C684.56,205.32 682.33,204.73 667.00,198.25 C666.17,197.90 667.44,199.84 669.81,202.56 C681.00,215.40 689.69,233.30 688.23,240.50 L 687.62 243.50 L 686.30 239.50 L 684.98 235.50 L 685.48 239.50 C685.75,241.70 685.98,244.51 685.99,245.75 C686.00,246.99 686.45,248.00 687.00,248.00 C687.55,248.00 688.00,247.32 688.00,246.50 C688.00,245.68 688.45,245.00 689.00,245.00 C689.55,245.00 690.00,246.66 690.00,248.70 ZM 494.98 294.43 C495.51,295.85 496.18,297.00 496.45,297.00 C496.73,297.00 497.82,295.31 498.87,293.25 C499.93,291.19 502.89,286.35 505.45,282.50 C508.02,278.65 512.78,270.10 516.05,263.50 C523.60,248.22 527.24,234.34 529.95,210.50 C531.08,200.60 532.72,189.20 533.59,185.17 C534.46,181.14 534.90,177.57 534.57,177.24 C533.59,176.25 524.33,186.50 521.06,192.19 C517.03,199.23 517.13,200.45 521.54,197.84 C523.49,196.69 525.30,195.97 525.57,196.24 C526.76,197.43 523.82,201.95 520.52,203.99 C516.31,206.59 513.38,210.61 513.82,213.20 C513.99,214.19 513.59,215.00 512.94,215.00 C512.13,215.00 511.96,213.96 512.39,211.78 C512.85,209.52 512.72,208.88 511.98,209.62 C511.40,210.20 510.68,212.43 510.38,214.59 C510.08,216.74 510.21,218.04 510.67,217.47 C511.13,216.90 512.50,216.51 513.72,216.58 C514.95,216.66 515.73,216.38 515.47,215.95 C515.02,215.22 522.11,209.00 523.39,209.00 C524.44,209.00 524.07,213.41 522.01,225.45 C518.64,245.14 512.50,260.55 500.65,278.99 C493.61,289.95 493.44,290.41 494.98,294.43 ZM 503.23 254.25 C503.86,259.06 504.51,263.00 504.67,263.00 C504.83,263.00 505.90,261.16 507.04,258.92 C509.01,255.07 509.06,254.29 507.92,245.28 C505.80,228.40 509.02,205.29 515.22,193.04 C523.15,177.37 540.65,164.67 560.74,160.02 C564.51,159.15 566.74,157.92 568.65,155.65 C571.27,152.55 571.27,152.50 569.16,152.18 C565.07,151.57 550.45,156.14 540.00,161.28 C531.18,165.63 528.22,167.74 521.49,174.48 C509.44,186.55 504.24,199.04 501.90,221.50 C500.85,231.58 501.12,238.22 503.23,254.25 ZM 779.00 506.26 C779.00,506.74 779.79,506.90 780.75,506.60 C781.71,506.31 784.62,505.61 787.22,505.04 C813.32,499.32 833.90,481.00 842.84,455.50 C845.40,448.19 848.41,434.07 847.57,433.24 C847.24,432.91 845.80,433.50 844.38,434.57 C842.35,436.09 841.29,438.53 839.42,446.00 C835.97,459.74 831.01,468.94 821.84,478.51 C813.04,487.71 805.01,492.85 793.55,496.61 C786.14,499.04 779.00,503.77 779.00,506.26 ZM 511.84 388.80 L 514.33 391.00 L 517.16 393.50 L 516.64 391.00 C516.35,389.62 515.36,384.90 514.43,380.50 C513.51,376.10 511.21,368.05 509.31,362.61 C505.40,351.36 495.06,330.12 492.44,327.95 C490.79,326.58 490.72,327.09 491.25,337.00 C492.14,353.51 498.79,370.49 509.47,383.53 C511.60,386.13 512.41,388.20 511.84,388.80 ZM 799.00 465.65 C799.00,466.39 799.56,466.99 800.25,466.99 C804.00,466.95 806.48,465.18 809.93,460.12 C815.87,451.42 821.51,445.48 830.37,438.63 C838.33,432.47 842.67,429.73 858.21,421.02 C864.04,417.75 866.17,415.96 866.96,413.70 C868.82,408.34 867.78,407.60 863.08,410.94 C861.58,412.01 855.44,415.67 849.43,419.08 C834.17,427.74 827.90,432.16 819.22,440.37 C811.43,447.76 799.00,463.29 799.00,465.65 ZM 717.00 259.74 C717.00,264.42 716.57,266.08 715.00,267.50 C713.01,269.30 713.01,269.25 713.36,257.40 C713.78,243.62 715.57,237.72 722.14,228.54 C730.68,216.62 743.69,209.81 758.00,209.77 C770.43,209.74 782.27,214.56 779.11,218.37 C778.16,219.51 777.33,219.42 774.02,217.78 C771.84,216.70 766.93,215.34 763.10,214.74 C757.21,213.83 755.13,213.94 749.54,215.45 C730.33,220.65 717.00,238.79 717.00,259.74 ZM 882.45 377.41 C882.83,380.50 883.51,382.80 883.96,382.52 C885.52,381.56 889.91,369.19 891.08,362.44 C892.24,355.82 891.86,342.19 890.45,339.93 C889.43,338.28 888.41,340.21 885.55,349.14 C882.70,358.03 881.45,369.44 882.45,377.41 ZM 491.33 281.42 C491.66,282.29 492.13,283.00 492.36,283.00 C492.59,283.00 494.65,280.02 496.93,276.38 L 501.08 269.76 L 499.37 258.63 C498.43,252.51 497.37,247.16 497.03,246.75 C496.68,246.33 495.36,249.03 494.11,252.75 C491.82,259.51 490.02,278.01 491.33,281.42 ZM 814.00 462.85 C814.00,464.43 816.17,464.03 824.57,460.89 C827.59,459.76 830.69,457.86 831.46,456.67 C833.07,454.16 836.35,442.02 835.61,441.28 C834.14,439.80 814.00,459.90 814.00,462.85 ZM 747.00 498.16 C747.00,498.62 750.56,499.00 754.91,499.00 C762.59,499.00 762.96,498.89 767.66,495.15 C770.32,493.02 773.36,490.32 774.40,489.15 C776.30,487.01 776.29,487.00 773.71,487.00 C768.45,487.00 747.00,495.96 747.00,498.16 ZM 538.62 183.25 C538.26,184.76 538.31,185.99 538.73,185.99 C539.84,185.97 554.07,173.19 557.97,168.72 C561.39,164.79 561.55,163.17 558.35,164.81 C557.33,165.33 553.36,167.07 549.52,168.66 C543.02,171.36 542.43,171.87 540.91,176.03 C540.02,178.49 538.99,181.74 538.62,183.25 ZM 742.00 242.25 C739.73,246.06 733.00,251.71 733.01,249.79 C733.03,247.06 737.91,238.36 741.13,235.30 C745.83,230.84 750.87,228.99 758.22,229.03 C763.81,229.06 764.30,229.22 762.66,230.46 C761.64,231.23 759.09,232.15 756.99,232.50 C751.87,233.37 744.39,238.23 742.00,242.25 ZM 627.48 452.08 C634.81,457.30 637.50,457.90 637.50,454.33 C637.50,452.79 634.99,450.31 628.66,445.59 C619.66,438.88 616.44,437.69 615.30,440.66 C614.59,442.50 616.31,444.11 627.48,452.08 ZM 851.55 440.30 C851.25,443.09 851.42,444.86 851.95,444.53 C854.75,442.80 864.77,425.44 863.63,424.29 C863.39,424.06 860.96,425.00 858.22,426.39 C852.88,429.09 852.70,429.48 851.55,440.30 ZM 792.00 491.42 C792.00,492.56 794.58,491.94 799.50,489.61 C805.05,486.98 813.45,481.12 812.71,480.38 C812.45,480.12 809.25,480.46 805.59,481.13 C799.62,482.23 798.60,482.78 795.48,486.60 C793.56,488.93 792.00,491.10 792.00,491.42 ZM 512.08 233.94 C512.16,243.36 512.19,243.45 513.67,240.04 C515.57,235.68 518.97,220.31 518.21,219.54 C517.89,219.23 516.37,220.19 514.82,221.67 C512.10,224.28 512.00,224.71 512.08,233.94 ZM 514.96 395.19 C517.86,398.27 518.43,398.57 517.69,396.62 C517.39,395.86 517.68,394.71 518.33,394.06 C519.23,393.16 519.14,393.02 517.95,393.47 C517.00,393.83 515.46,392.99 513.95,391.28 L 511.80 388.83 C511.47,389.11 510.79,389.00 509.75,388.39 C508.38,387.59 510.95,390.94 514.96,395.19 ZM 708.16 202.58 C707.80,202.99 708.22,203.06 709.09,202.75 C709.97,202.44 713.24,201.86 716.36,201.47 C719.47,201.09 722.26,200.39 722.55,199.93 C722.83,199.47 723.84,199.33 724.78,199.62 C726.28,200.08 726.30,200.02 724.93,199.13 C723.82,198.40 721.26,198.65 716.09,199.98 C712.09,201.01 708.52,202.18 708.16,202.58 ZM 724.51 125.83 C725.05,128.17 725.53,128.76 726.12,127.83 C727.07,126.31 726.37,123.42 724.34,120.50 L 722.95 118.50 L 723.35 120.50 C723.57,121.60 724.09,124.00 724.51,125.83 ZM 724.00 271.15 C724.00,272.97 725.97,271.85 728.13,268.82 C729.39,267.05 729.75,266.01 728.95,266.47 C726.53,267.86 724.00,270.26 724.00,271.15 ZM 546.65 476.17 C548.35,478.04 550.02,478.59 549.97,477.25 C549.93,476.28 545.00,472.68 545.00,473.62 C545.00,474.02 545.74,475.17 546.65,476.17 ZM 692.71 250.72 C692.22,253.28 692.28,253.34 693.59,251.54 C695.15,249.42 695.51,246.57 694.12,247.43 C693.64,247.73 693.00,249.21 692.71,250.72 ZM 727.00 96.54 C727.00,97.59 725.15,96.89 723.87,95.34 C722.63,93.83 722.71,93.78 724.75,94.87 C725.99,95.53 727.00,96.28 727.00,96.54 ZM 804.00 249.94 C804.00,250.52 804.45,251.00 805.00,251.00 C805.55,251.00 806.00,250.80 806.00,250.56 C806.00,250.32 805.55,249.84 805.00,249.50 C804.45,249.16 804.00,249.36 804.00,249.94 ZM 511.84 388.80 L 511.50 388.50 L 511.80 388.83 C511.81,388.82 511.82,388.81 511.84,388.80 Z" fill="rgb(19,70,37)"/>
<path d="M 710.18 81.60 C726.18,81.61 730.33,81.97 738.50,83.79 C742.51,84.69 746.44,85.65 750.30,86.70 C740.40,84.32 729.20,82.47 728.42,83.25 C728.15,83.51 730.31,84.09 733.22,84.53 C738.48,85.33 738.49,85.34 735.00,86.03 C731.88,86.66 731.80,86.75 734.25,86.87 C735.76,86.94 737.00,87.37 737.00,87.83 C737.00,88.17 738.69,88.77 741.08,89.33 C735.77,88.41 736.67,89.57 743.36,92.99 C749.45,96.11 756.08,100.16 762.23,104.43 C755.50,99.83 748.46,95.74 742.73,93.33 C733.28,89.34 731.39,89.38 740.11,93.39 C747.48,96.77 747.41,97.72 739.99,94.90 C731.65,91.74 730.47,90.97 732.11,89.80 C733.17,89.05 733.05,88.96 731.62,89.42 C730.59,89.76 729.10,89.50 728.32,88.85 C727.19,87.91 726.95,87.95 727.19,89.04 C727.68,91.25 729.38,92.79 730.74,92.27 C731.44,92.00 732.00,92.36 732.00,93.06 C732.00,93.22 732.02,93.36 732.04,93.48 C731.18,93.17 730.55,93.00 730.25,93.00 C729.87,93.00 731.03,94.53 732.97,96.65 C726.59,90.83 724.57,94.21 731.81,102.58 C733.49,104.52 735.81,107.93 737.74,111.21 C735.91,108.33 733.67,105.33 731.80,103.34 C722.24,93.16 712.41,88.20 699.23,87.29 C704.97,87.28 708.00,87.56 708.00,88.09 C708.00,88.65 708.50,88.81 709.11,88.43 C709.72,88.05 710.57,88.30 710.99,88.98 C711.48,89.78 711.97,89.85 712.38,89.19 C712.73,88.62 711.14,87.51 708.76,86.66 C705.82,85.62 705.20,85.13 706.75,85.08 C707.99,85.04 709.00,84.55 709.00,84.00 C709.00,83.45 706.19,82.91 702.75,82.81 C697.25,82.64 697.64,82.53 706.00,81.94 C708.02,81.79 709.43,81.68 710.18,81.60 ZM 541.02 465.25 C552.44,476.65 557.25,480.43 555.68,476.75 C555.49,476.31 554.18,473.40 552.36,469.42 C553.51,471.60 554.38,472.95 554.58,472.75 C554.89,472.44 554.18,470.31 553.00,468.00 C549.00,460.16 551.56,463.04 556.37,471.79 C561.79,481.65 563.51,487.79 560.52,486.64 C558.98,486.06 558.91,486.18 560.01,487.51 C560.09,487.61 560.17,487.70 560.25,487.78 C555.85,485.23 546.38,477.69 539.66,471.14 C535.87,467.45 532.15,463.50 528.55,459.35 C514.33,443.09 501.32,422.76 491.77,401.64 C488.67,394.79 485.94,387.88 483.65,381.00 C485.94,387.89 488.67,394.80 491.77,401.64 C501.18,422.43 514.02,442.61 528.55,459.35 C536.13,468.02 544.06,475.53 552.00,481.39 C558.21,485.97 558.30,486.00 554.00,482.12 C549.73,478.27 549.41,476.33 553.56,479.47 C558.50,483.20 555.65,479.93 542.49,466.75 C541.75,466.00 541.01,465.26 540.28,464.50 C540.53,464.75 540.77,465.00 541.02,465.25 ZM 812.28 207.79 C810.54,219.64 810.74,239.18 812.85,234.50 C813.27,233.57 814.05,230.76 814.93,227.11 C813.97,231.15 813.09,234.48 812.59,235.86 C811.72,238.25 811.27,240.63 811.59,241.15 C811.91,241.67 811.43,243.23 810.52,244.62 C808.89,247.10 808.90,247.12 811.02,245.99 C811.19,245.90 811.37,245.78 811.54,245.65 C810.82,246.63 810.06,247.61 809.30,248.56 C809.84,247.57 809.35,247.46 807.54,248.97 C805.44,250.71 804.57,248.27 805.96,244.61 C806.53,243.10 807.06,240.66 807.14,239.18 C807.25,236.94 807.34,236.85 807.70,238.68 C808.17,241.09 811.00,244.04 811.00,242.12 C811.00,241.51 810.55,241.00 810.00,241.00 C809.45,241.00 809.00,240.32 809.00,239.50 C809.00,238.68 809.45,238.00 810.00,238.00 C810.61,238.00 811.01,233.24 811.02,225.75 C811.03,219.31 811.48,212.94 812.28,207.79 ZM 668.89 239.13 C669.17,240.18 669.43,241.25 669.66,242.34 C670.00,243.97 670.24,245.61 670.37,247.25 C669.62,246.75 668.38,248.44 667.89,251.58 L 667.28 255.50 L 667.02 251.00 C666.76,246.54 666.74,246.56 665.85,252.77 C665.29,256.68 664.36,260.35 663.09,263.73 C665.25,256.98 665.64,247.71 663.93,239.68 C662.95,235.08 660.61,230.33 657.39,225.99 C660.68,230.34 663.10,235.08 664.11,239.60 C664.81,242.75 665.56,244.83 665.76,244.22 C665.96,243.62 665.68,241.51 665.14,239.55 C664.60,237.58 664.56,236.23 665.05,236.53 C665.54,236.84 666.45,238.96 667.07,241.25 C667.97,244.60 668.37,245.09 669.12,243.75 C669.53,243.02 669.40,241.31 668.89,239.13 ZM 667.32 291.75 C667.39,291.68 667.47,291.60 667.54,291.53 C677.77,281.31 683.60,269.15 684.80,256.27 C684.65,258.76 684.36,261.05 683.94,262.88 C682.74,268.10 683.47,269.68 684.85,264.86 C685.38,263.01 685.86,262.26 685.91,263.18 C685.96,264.11 685.56,266.02 685.03,267.43 C684.49,268.83 684.38,269.93 684.78,269.87 C686.73,269.58 687.00,270.15 685.56,271.58 C684.69,272.45 684.19,273.49 684.43,273.89 C685.02,274.84 680.17,280.51 679.43,279.76 C679.11,279.45 679.79,277.37 680.93,275.14 C682.07,272.91 683.00,270.55 683.00,269.91 C683.00,269.26 681.35,272.04 679.33,276.07 C676.74,281.25 673.42,285.65 668.08,291.00 C667.82,291.25 667.57,291.50 667.32,291.75 ZM 514.96 395.19 C510.95,390.94 508.38,387.59 509.75,388.39 C510.79,389.00 511.47,389.11 511.80,388.83 L 511.50 388.50 L 511.84 388.80 C512.30,388.31 511.87,386.89 510.58,385.00 C514.85,390.30 516.00,390.97 515.99,388.25 C515.99,388.13 515.99,388.00 515.98,387.85 C516.28,389.30 516.52,390.43 516.64,391.00 L 517.16 393.50 L 514.33 391.00 L 511.84 388.80 C511.82,388.81 511.81,388.82 511.80,388.83 L 513.95 391.28 C515.46,392.99 517.00,393.83 517.95,393.47 C519.14,393.02 519.23,393.16 518.33,394.06 C517.68,394.71 517.39,395.86 517.69,396.62 C518.43,398.57 517.86,398.27 514.96,395.19 ZM 690.00 248.70 C690.00,246.66 689.55,245.00 689.00,245.00 C688.45,245.00 688.00,245.68 688.00,246.50 C688.00,247.32 687.55,248.00 687.00,248.00 C686.45,248.00 686.00,246.99 685.99,245.75 C685.98,244.51 685.75,241.70 685.48,239.50 L 684.98 235.50 L 686.30 239.50 L 687.62 243.50 L 688.23 240.50 C688.50,239.17 688.42,237.47 688.04,235.50 C688.89,238.75 689.45,241.97 689.72,245.16 C689.97,248.18 690.44,250.59 690.86,251.25 C690.26,251.89 690.00,251.00 690.00,248.70 ZM 708.16 202.58 C708.52,202.18 712.09,201.01 716.09,199.98 C721.26,198.65 723.82,198.40 724.93,199.13 C726.30,200.02 726.28,200.08 724.78,199.62 C723.84,199.33 722.83,199.47 722.55,199.93 C722.26,200.39 719.47,201.09 716.36,201.47 C713.24,201.86 709.97,202.44 709.09,202.75 C708.22,203.06 707.80,202.99 708.16,202.58 ZM 514.88 209.42 C514.30,210.50 514.00,211.61 514.00,212.72 C514.00,215.67 514.45,215.60 519.00,212.00 L 519.10 211.92 C517.10,213.64 515.23,215.56 515.47,215.95 C515.73,216.38 514.95,216.66 513.72,216.58 C512.50,216.51 511.13,216.90 510.67,217.47 C510.21,218.04 510.08,216.74 510.38,214.59 C510.68,212.43 511.40,210.20 511.98,209.62 C512.72,208.88 512.85,209.52 512.39,211.78 C511.96,213.96 512.13,215.00 512.94,215.00 C513.59,215.00 513.99,214.19 513.82,213.20 C513.64,212.12 514.04,210.79 514.88,209.42 ZM 563.29 482.10 C563.20,482.04 563.09,482.00 562.98,482.00 C562.35,482.00 562.01,481.47 562.23,480.81 C562.45,480.16 561.79,478.79 560.78,477.78 C559.76,476.76 559.20,475.49 559.52,474.96 C559.85,474.43 559.61,474.00 559.00,474.00 C558.39,474.00 558.16,473.55 558.50,473.00 C558.84,472.45 558.61,472.00 558.00,472.00 C557.39,472.00 557.16,471.55 557.50,471.00 C557.84,470.45 557.61,470.00 557.00,470.00 C556.39,470.00 556.16,469.55 556.50,469.00 C556.84,468.45 556.74,468.00 556.27,468.00 C555.81,468.00 555.36,467.21 555.28,466.25 C555.20,465.29 553.53,461.05 551.58,456.84 C549.39,452.13 547.28,446.85 545.18,440.77 C548.69,450.61 552.56,459.26 557.47,469.02 C560.61,475.25 562.46,479.38 563.29,482.10 ZM 687.98 272.49 C685.72,277.02 683.39,280.87 680.80,284.40 C681.34,283.65 681.59,283.15 681.49,282.98 C681.14,282.43 680.33,282.30 679.68,282.71 C677.10,284.32 675.98,283.91 677.12,281.77 C677.72,280.65 678.50,280.13 678.86,280.61 C679.80,281.92 683.34,282.35 682.54,281.07 C682.18,280.49 683.02,278.96 684.41,277.67 C685.47,276.69 686.65,274.98 687.98,272.49 ZM 724.51 125.83 C724.09,124.00 723.57,121.60 723.35,120.50 L 722.95 118.50 L 724.34 120.50 C726.37,123.42 727.07,126.31 726.12,127.83 C725.53,128.76 725.05,128.17 724.51,125.83 ZM 709.33 290.43 C713.15,282.50 718.11,274.92 723.42,269.15 C726.50,265.80 735.21,258.87 746.60,250.59 C726.12,265.62 717.17,275.19 710.71,287.71 C710.22,288.64 709.77,289.55 709.33,290.43 ZM 755.50 250.09 C741.18,260.29 734.39,265.76 729.13,271.07 C727.92,272.30 726.76,273.52 725.65,274.75 C726.48,273.71 726.86,273.00 726.52,273.00 C726.04,273.00 726.71,271.88 728.00,270.50 C729.29,269.12 730.76,268.00 731.27,268.00 C731.78,268.00 734.11,266.31 736.46,264.25 C739.73,261.38 743.28,258.68 755.50,250.09 ZM 724.00 271.15 C724.00,270.26 726.53,267.86 728.95,266.47 C729.75,266.01 729.39,267.05 728.13,268.82 C725.97,271.85 724.00,272.97 724.00,271.15 ZM 546.65 476.17 C545.74,475.17 545.00,474.02 545.00,473.62 C545.00,472.68 549.93,476.28 549.97,477.25 C550.02,478.59 548.35,478.04 546.65,476.17 ZM 801.83 253.60 C802.10,252.45 802.54,250.97 803.08,249.41 C804.62,245.05 805.40,239.44 806.04,228.03 C806.22,224.71 806.37,221.60 806.46,219.02 C806.43,221.40 806.36,224.23 806.26,227.25 C805.82,240.03 805.35,243.54 803.36,248.90 C802.70,250.67 802.16,252.34 801.83,253.60 ZM 692.71 250.72 C693.00,249.21 693.64,247.73 694.12,247.43 C695.51,246.57 695.15,249.42 693.59,251.54 C692.28,253.34 692.22,253.28 692.71,250.72 ZM 760.03 368.15 C769.35,367.24 777.94,365.12 786.01,361.71 C781.84,363.52 777.57,365.06 773.50,366.19 C768.71,367.52 765.97,368.05 760.03,368.15 ZM 787.12 100.08 C805.70,108.82 821.73,119.89 835.05,133.21 C822.36,120.52 805.43,108.94 787.12,100.08 ZM 710.36 367.34 C711.84,367.37 713.72,367.34 715.75,367.26 C720.13,367.09 727.31,367.30 732.51,367.74 C727.09,367.66 722.05,367.59 718.75,367.57 C715.47,367.55 712.49,367.46 710.36,367.34 ZM 680.27 285.12 C677.50,288.79 674.41,292.15 670.77,295.60 C666.81,299.36 662.62,302.53 658.23,305.11 C663.14,302.09 667.93,298.19 672.81,293.31 C676.03,290.10 678.76,287.07 680.27,285.12 ZM 727.00 96.54 C727.00,96.28 725.99,95.53 724.75,94.87 C722.71,93.78 722.63,93.83 723.87,95.34 C725.15,96.89 727.00,97.59 727.00,96.54 ZM 715.46 183.62 C719.11,182.30 722.54,180.62 725.70,178.62 C718.97,182.97 711.12,185.71 702.48,186.61 C699.46,186.93 696.41,186.86 693.39,186.46 C700.24,187.04 708.93,185.99 715.46,183.62 ZM 698.58 201.00 C694.79,201.00 691.41,200.79 688.23,200.30 C691.39,200.78 694.73,200.99 698.46,200.98 C707.51,200.96 709.82,200.49 735.00,193.54 C739.35,192.34 743.80,191.45 748.15,190.89 C743.90,191.44 739.60,192.31 735.50,193.48 C712.07,200.13 707.79,201.00 698.58,201.00 ZM 727.90 146.24 C729.09,142.14 729.69,135.78 729.43,131.18 C730.14,136.47 729.63,141.52 727.90,146.24 ZM 732.64 93.69 C733.00,93.36 734.22,93.60 735.38,94.25 C736.55,94.90 737.84,95.33 738.25,95.21 C738.66,95.10 739.00,95.45 739.00,96.00 C739.00,96.16 739.05,96.32 739.14,96.46 C736.64,95.31 734.31,94.32 732.64,93.69 ZM 570.92 263.45 C569.41,252.39 571.11,240.96 576.36,230.91 C576.25,231.12 576.15,231.34 576.05,231.55 C571.15,241.92 569.59,252.96 570.92,263.45 ZM 691.87 81.89 C680.07,82.66 672.58,84.75 660.41,90.09 C673.30,84.44 679.33,82.52 691.87,81.89 ZM 618.97 292.67 C613.82,291.70 609.82,289.75 605.57,286.27 C609.67,289.27 614.21,291.42 618.97,292.67 ZM 724.15 276.45 C718.38,283.18 714.16,290.07 711.18,297.95 C714.26,289.54 718.54,282.48 724.15,276.45 ZM 804.00 249.94 C804.00,249.36 804.45,249.16 805.00,249.50 C805.55,249.84 806.00,250.32 806.00,250.56 C806.00,250.80 805.55,251.00 805.00,251.00 C804.45,251.00 804.00,250.52 804.00,249.94 ZM 645.36 290.21 C650.54,287.79 655.73,283.70 659.87,278.94 C655.92,283.66 650.99,287.59 645.32,290.27 C641.18,292.23 639.17,293.01 635.74,293.30 C638.99,292.70 642.22,291.68 645.36,290.21 ZM 678.66 104.03 C681.71,102.89 684.78,102.10 687.81,101.66 C681.07,102.71 674.62,105.50 669.11,109.84 C672.27,107.25 675.62,105.16 678.66,104.03 ZM 615.93 228.21 C622.06,226.80 628.66,227.19 633.59,229.76 C633.69,229.81 633.78,229.86 633.87,229.90 C630.70,228.33 627.05,227.62 622.50,227.59 C620.20,227.57 618.01,227.79 615.93,228.21 ZM 595.82 263.53 C594.24,257.29 594.57,250.79 596.81,244.90 C595.64,248.23 595.02,251.96 595.02,256.00 C595.02,258.63 595.29,261.14 595.82,263.53 ZM 792.41 358.68 C798.19,355.63 803.72,351.85 809.07,347.31 C806.42,349.68 803.93,351.69 801.82,353.12 C798.95,355.07 795.76,356.95 792.41,358.68 ZM 684.49 243.43 C683.65,237.40 681.83,231.30 679.02,225.26 C678.61,224.39 678.19,223.53 677.73,222.66 C680.38,227.52 682.09,232.13 683.46,237.46 C683.90,239.17 684.25,241.22 684.49,243.43 ZM 509.34 425.22 C497.89,406.74 489.44,386.80 483.76,365.00 C489.37,386.55 497.97,406.74 509.34,425.22 ZM 680.94 88.30 C674.20,89.63 668.85,92.27 661.77,97.32 C669.32,91.93 673.97,89.45 680.94,88.30 ZM 692.10 248.99 C692.50,247.19 694.11,243.09 696.11,238.49 C695.41,240.24 694.72,242.08 694.03,244.00 C693.27,246.12 692.63,247.78 692.10,248.99 ZM 618.32 203.10 C626.84,202.45 635.48,204.01 643.42,207.89 C635.78,204.26 627.13,202.55 618.32,203.10 ZM 644.32 285.23 C639.33,287.68 633.67,289.00 627.54,289.00 C627.08,289.00 626.61,288.98 626.14,288.95 C627.23,288.94 628.50,288.88 630.03,288.79 C635.26,288.49 640.04,287.29 644.32,285.23 ZM 704.02 304.26 C702.26,311.01 701.57,318.46 701.26,329.66 C701.63,316.23 702.21,310.79 703.91,304.64 C703.95,304.52 703.98,304.39 704.02,304.26 ZM 710.63 165.28 C710.92,165.13 711.23,164.98 711.54,164.81 C716.14,162.41 720.99,157.90 724.33,153.16 C723.31,154.67 722.15,156.14 720.84,157.56 C717.49,161.19 714.24,163.70 710.63,165.28 ZM 748.47 142.36 C748.02,147.20 747.17,150.19 745.15,155.00 C745.07,155.19 744.99,155.38 744.91,155.57 C746.66,151.32 747.85,146.87 748.47,142.36 ZM 740.32 97.00 C741.33,97.06 744.51,98.69 748.49,101.05 C746.05,99.75 743.12,98.31 740.32,97.00 ZM 804.54 141.94 L 799.91 140.54 L 803.06 141.48 C814.40,144.86 821.94,147.57 833.50,152.43 C831.52,151.69 828.58,150.49 825.00,149.00 C820.88,147.27 811.67,144.10 804.54,141.94 ZM 643.02 261.37 C642.91,261.56 642.78,261.75 642.66,261.94 C639.90,266.10 635.96,268.48 631.88,269.28 C633.08,269.01 634.30,268.58 635.50,268.00 C638.69,266.46 641.22,264.14 643.02,261.37 ZM 580.81 223.86 C582.19,222.03 583.72,220.26 585.38,218.58 C588.92,215.02 592.82,212.04 596.96,209.68 C590.78,213.34 585.07,218.32 580.81,223.86 ZM 739.31 103.96 C743.38,109.56 746.17,115.84 747.63,122.73 C746.12,116.06 743.34,109.66 739.31,103.96 ZM 591.25 245.60 C592.30,240.33 594.60,236.80 599.24,232.07 C594.90,236.50 592.50,240.37 591.25,245.60 ZM 724.84 134.79 C724.53,123.93 717.73,113.37 707.80,108.90 C717.84,113.42 724.55,123.83 724.84,134.79 ZM 714.46 107.05 C717.06,108.73 719.42,110.75 721.45,113.07 C719.25,110.90 716.64,108.62 714.46,107.05 ZM 683.07 222.25 C679.71,215.65 675.03,208.55 669.81,202.56 C675.30,208.86 679.76,215.51 683.07,222.25 ZM 762.42 110.21 C763.56,111.03 764.64,111.84 765.64,112.61 C768.03,114.47 771.34,117.38 774.66,120.50 C770.70,116.83 766.55,113.34 762.42,110.21 ZM 728.35 125.98 C727.94,125.04 727.56,124.10 727.46,123.75 C727.35,123.34 727.14,122.78 727.00,122.50 C726.82,122.13 726.61,121.47 726.44,120.73 C727.07,122.09 727.62,123.52 728.07,125.00 C728.17,125.33 728.26,125.66 728.35,125.98 ZM 507.98 381.66 C503.81,376.23 500.31,370.18 497.60,363.81 C500.26,369.96 503.73,375.93 507.98,381.66 ZM 616.29 286.52 C611.54,284.58 607.01,281.66 603.88,278.30 C606.89,281.34 610.64,283.92 615.08,285.97 C615.50,286.16 615.91,286.35 616.29,286.52 ZM 806.39 212.19 C805.65,212.48 801.78,215.56 797.31,219.44 C796.17,220.43 794.66,221.67 792.89,223.07 C794.60,221.71 796.07,220.50 797.19,219.53 C801.98,215.39 806.09,212.00 806.33,212.00 C806.35,212.00 806.38,212.07 806.39,212.19 ZM 805.48 253.00 C803.54,255.05 802.02,256.31 801.60,255.91 C801.59,255.90 801.58,255.89 801.57,255.87 C801.99,255.95 803.63,254.74 805.48,253.00 ZM 846.22 152.41 C845.27,154.51 844.17,155.42 840.98,154.83 C843.77,155.23 845.31,154.42 846.22,152.41 ZM 669.80 258.00 C669.28,260.84 668.47,263.64 667.39,266.34 C668.32,263.76 669.16,260.82 669.80,258.00 ZM 803.15 114.02 C805.55,115.48 807.83,116.94 809.93,118.39 C812.81,120.38 815.70,122.54 818.50,124.76 C815.36,122.30 812.04,119.86 808.66,117.57 C806.90,116.38 805.06,115.20 803.15,114.02 ZM 654.91 301.48 C646.95,306.20 638.49,308.34 628.50,308.37 C638.40,308.34 646.97,306.15 654.91,301.48 ZM 838.31 143.74 C840.29,146.35 841.14,148.26 840.41,148.99 C840.39,149.00 840.37,149.02 840.34,149.03 C840.94,148.14 840.15,146.26 838.31,143.74 ZM 815.61 239.43 C816.71,237.00 817.79,234.02 818.80,230.62 C817.83,233.98 816.85,236.87 816.08,238.50 C815.94,238.79 815.79,239.10 815.61,239.43 ZM 744.82 90.09 C748.75,90.86 753.15,92.03 757.82,93.52 C754.63,92.53 751.51,91.66 748.50,90.94 C747.15,90.61 745.92,90.33 744.82,90.09 ZM 595.97 276.47 C594.33,274.34 593.15,272.30 592.32,270.08 C593.22,272.22 594.42,274.29 595.97,276.47 ZM 670.33 176.26 C665.06,171.94 660.66,166.49 657.74,160.26 C660.59,166.34 665.00,171.85 670.33,176.26 ZM 518.76 329.65 C517.65,324.57 515.74,315.49 513.91,306.64 L 509.61 285.77 L 513.92 306.64 C515.71,315.31 517.61,324.33 518.76,329.65 ZM 529.14 378.97 C527.97,373.48 526.75,367.67 525.50,361.50 C524.89,358.51 524.27,355.50 523.67,352.62 C524.27,355.51 524.90,358.52 525.51,361.50 C526.79,367.75 527.99,373.55 529.14,378.97 ZM 742.51 121.02 C743.49,124.03 743.50,126.95 743.50,134.95 C743.50,127.05 743.44,124.03 742.51,121.02 ZM 703.66 222.78 C704.15,221.89 704.60,221.14 704.99,220.55 C705.43,219.88 705.94,219.14 706.50,218.37 C705.52,219.78 704.58,221.25 703.66,222.78 ZM 716.33 357.25 C711.20,362.18 707.18,366.29 707.01,366.92 C707.00,366.91 707.00,366.91 707.00,366.90 C707.00,366.44 711.10,362.27 716.33,357.25 ZM 499.80 340.67 C496.61,334.24 493.63,328.94 492.44,327.95 C493.67,328.97 496.62,334.23 499.80,340.67 ZM 563.81 485.17 L 563.82 485.14 C563.81,485.19 563.81,485.23 563.81,485.28 C563.64,486.97 563.05,488.49 562.50,488.66 C562.43,488.68 562.34,488.68 562.24,488.67 C563.04,488.40 563.61,487.20 563.81,485.17 ZM 616.75 264.09 C615.05,261.88 614.01,259.05 614.00,255.68 C614.01,258.94 615.04,261.81 616.75,264.09 ZM 638.79 233.35 C640.09,234.52 641.23,235.81 642.20,237.19 C641.78,236.59 641.31,236.01 640.82,235.45 C640.15,234.69 639.48,233.99 638.79,233.35 Z" fill="rgb(36,85,55)"/>
<path d="M 907.12 274.91 C906.33,270.03 905.47,267.01 904.66,267.28 C904.08,267.47 903.02,271.20 902.29,275.56 C901.32,281.32 900.10,286.73 898.42,292.31 C901.00,283.23 902.98,273.24 902.99,268.25 C903.00,262.90 904.34,261.18 905.33,265.25 C906.00,267.99 906.60,271.26 907.12,274.91 ZM 551.53 175.14 C555.97,170.78 559.00,166.97 559.00,165.57 C559.00,165.14 557.46,165.46 554.98,166.34 C556.58,165.64 557.84,165.07 558.35,164.81 C561.55,163.17 561.39,164.79 557.97,168.72 C556.68,170.20 554.24,172.60 551.53,175.14 ZM 891.96 309.67 C888.76,317.09 884.68,325.42 879.41,335.50 C878.98,336.32 878.56,337.14 878.14,337.95 C879.15,335.93 880.20,333.83 881.30,331.67 C885.14,324.11 889.19,315.72 891.96,309.67 ZM 906.13 351.23 C907.57,343.89 908.60,336.02 909.21,327.64 C908.91,333.73 908.38,339.19 907.62,343.50 C907.14,346.18 906.65,348.75 906.13,351.23 ZM 863.78 369.28 C859.50,380.38 856.73,390.38 855.01,400.47 C856.82,389.87 859.29,380.66 863.78,369.28 ZM 899.63 374.16 C896.56,382.20 892.86,388.96 888.33,395.03 C892.77,389.08 896.54,382.10 899.63,374.16 ZM 538.62 183.25 C538.90,182.09 539.58,179.89 540.28,177.82 L 540.07 178.51 C539.48,180.43 538.94,182.21 538.56,183.51 C538.58,183.42 538.60,183.34 538.62,183.25 ZM 538.61 185.95 C539.26,185.73 540.49,184.87 542.48,183.23 C540.50,184.88 539.05,185.98 538.73,185.99 C538.68,185.99 538.64,185.97 538.61,185.95 Z" fill="rgb(153,182,164)"/>
</g>
</svg>